<?xml version="1.0" encoding="UTF-8"?>
<svg width="512" height="512" viewBox="0 0 512 512" xmlns="http://www.w3.org/2000/svg">
  <!-- Background gradient -->
  <defs>
    <linearGradient id="bgGradient" x1="0%" y1="0%" x2="100%" y2="100%">
      <stop offset="0%" style="stop-color:#667eea;stop-opacity:1" />
      <stop offset="100%" style="stop-color:#764ba2;stop-opacity:1" />
    </linearGradient>

    <linearGradient id="pendulumGradient" x1="0%" y1="0%" x2="0%" y2="100%">
      <stop offset="0%" style="stop-color:#ffffff;stop-opacity:1" />
      <stop offset="100%" style="stop-color:#e0e0e0;stop-opacity:1" />
    </linearGradient>
  </defs>

  <!-- Rounded square background -->
  <rect width="512" height="512" rx="115" ry="115" fill="url(#bgGradient)"/>

  <!-- Double Inverted Pendulum Representation -->
  <!-- Base/Cart -->
  <rect x="206" y="380" width="100" height="40" rx="8" ry="8" fill="#ffffff" opacity="0.95"/>
  <rect x="216" y="390" width="80" height="20" rx="4" ry="4" fill="url(#pendulumGradient)"/>

  <!-- Wheels -->
  <circle cx="226" cy="430" r="12" fill="#ffffff" opacity="0.9"/>
  <circle cx="286" cy="430" r="12" fill="#ffffff" opacity="0.9"/>
  <circle cx="226" cy="430" r="6" fill="#764ba2"/>
  <circle cx="286" cy="430" r="6" fill="#764ba2"/>

  <!-- First pendulum rod (tilted right) -->
  <line x1="256" y1="380" x2="300" y2="240" stroke="#ffffff" stroke-width="12" stroke-linecap="round" opacity="0.95"/>

  <!-- First pendulum mass -->
  <circle cx="300" cy="240" r="24" fill="#ffffff" opacity="0.95"/>
  <circle cx="300" cy="240" r="16" fill="url(#pendulumGradient)"/>

  <!-- Second pendulum rod (tilted left from first mass) -->
  <line x1="300" y1="240" x2="280" y2="110" stroke="#ffffff" stroke-width="10" stroke-linecap="round" opacity="0.95"/>

  <!-- Second pendulum mass -->
  <circle cx="280" cy="110" r="20" fill="#ffffff" opacity="0.95"/>
  <circle cx="280" cy="110" r="14" fill="url(#pendulumGradient)"/>

  <!-- Control force indicator (arrow) -->
  <defs>
    <marker id="arrowhead" markerWidth="10" markerHeight="10" refX="9" refY="3" orient="auto">
      <polygon points="0 0, 10 3, 0 6" fill="#ffd700" />
    </marker>
  </defs>
  <line x1="140" y1="400" x2="196" y2="400" stroke="#ffd700" stroke-width="8" marker-end="url(#arrowhead)" opacity="0.9"/>

  <!-- Decorative elements - control signal waves -->
  <path d="M 80 460 Q 100 450, 120 460 T 160 460" stroke="#ffffff" stroke-width="3" fill="none" opacity="0.5"/>
  <path d="M 80 475 Q 100 465, 120 475 T 160 475" stroke="#ffffff" stroke-width="3" fill="none" opacity="0.4"/>

  <!-- Equilibrium line (dashed) -->
  <line x1="220" y1="100" x2="340" y2="100" stroke="#ffffff" stroke-width="2" stroke-dasharray="10,5" opacity="0.6"/>

  <!-- Document corner fold (subtle) -->
  <path d="M 450 60 L 450 100 L 490 100 Z" fill="#764ba2" opacity="0.3"/>
  <path d="M 450 60 L 490 100" stroke="#ffffff" stroke-width="1" opacity="0.2"/>
</svg>
